<svg width="20" height="20" viewBox="0 0 20 20" fill="none" xmlns="http://www.w3.org/2000/svg">
<mask id="path-1-inside-1_138_1529" fill="white">
<path d="M6.25 10.8333C5.50832 10.8333 4.7833 10.6134 4.16661 10.2013C3.54993 9.78929 3.06928 9.20362 2.78545 8.5184C2.50162 7.83317 2.42736 7.07917 2.57206 6.35175C2.71675 5.62432 3.0739 4.95613 3.59835 4.43168C4.1228 3.90724 4.79098 3.55008 5.51841 3.40539C6.24584 3.2607 6.99984 3.33496 7.68506 3.61879C8.37029 3.90262 8.95596 4.38326 9.36801 4.99995C9.78007 5.61663 10 6.34165 10 7.08333C9.9989 8.07756 9.60345 9.03074 8.90043 9.73377C8.19741 10.4368 7.24422 10.8322 6.25 10.8333ZM12.5 16.6667C12.4987 15.562 12.0593 14.503 11.2781 13.7218C10.497 12.9407 9.438 12.5013 8.33333 12.5H4.16667C3.062 12.5013 2.00296 12.9407 1.22185 13.7218C0.440735 14.503 0.00132321 15.562 0 16.6667L0 20H12.5V16.6667ZM14.5833 7.5C13.8417 7.5 13.1166 7.28007 12.4999 6.86801C11.8833 6.45596 11.4026 5.87029 11.1188 5.18506C10.835 4.49984 10.7607 3.74584 10.9054 3.01841C11.0501 2.29098 11.4072 1.6228 11.9317 1.09835C12.4561 0.573904 13.1243 0.216751 13.8517 0.0720569C14.5792 -0.0726377 15.3332 0.00162482 16.0184 0.285453C16.7036 0.569282 17.2893 1.04993 17.7013 1.66661C18.1134 2.2833 18.3333 3.00832 18.3333 3.75C18.3322 4.74422 17.9368 5.69741 17.2338 6.40043C16.5307 7.10346 15.5776 7.4989 14.5833 7.5ZM15.8333 9.16667H11.6667C11.5204 9.17338 11.3746 9.18812 11.23 9.21083C10.927 9.91193 10.4795 10.5412 9.91667 11.0575C11.1386 11.4032 12.2145 12.1379 12.9814 13.15C13.7484 14.1622 14.1644 15.3968 14.1667 16.6667H20V13.3333C19.9987 12.2287 19.5593 11.1696 18.7782 10.3885C17.997 9.6074 16.938 9.16799 15.8333 9.16667Z"/>
</mask>
<path d="M6.25 10.8333C5.50832 10.8333 4.7833 10.6134 4.16661 10.2013C3.54993 9.78929 3.06928 9.20362 2.78545 8.5184C2.50162 7.83317 2.42736 7.07917 2.57206 6.35175C2.71675 5.62432 3.0739 4.95613 3.59835 4.43168C4.1228 3.90724 4.79098 3.55008 5.51841 3.40539C6.24584 3.2607 6.99984 3.33496 7.68506 3.61879C8.37029 3.90262 8.95596 4.38326 9.36801 4.99995C9.78007 5.61663 10 6.34165 10 7.08333C9.9989 8.07756 9.60345 9.03074 8.90043 9.73377C8.19741 10.4368 7.24422 10.8322 6.25 10.8333ZM12.5 16.6667C12.4987 15.562 12.0593 14.503 11.2781 13.7218C10.497 12.9407 9.438 12.5013 8.33333 12.5H4.16667C3.062 12.5013 2.00296 12.9407 1.22185 13.7218C0.440735 14.503 0.00132321 15.562 0 16.6667L0 20H12.5V16.6667ZM14.5833 7.5C13.8417 7.5 13.1166 7.28007 12.4999 6.86801C11.8833 6.45596 11.4026 5.87029 11.1188 5.18506C10.835 4.49984 10.7607 3.74584 10.9054 3.01841C11.0501 2.29098 11.4072 1.6228 11.9317 1.09835C12.4561 0.573904 13.1243 0.216751 13.8517 0.0720569C14.5792 -0.0726377 15.3332 0.00162482 16.0184 0.285453C16.7036 0.569282 17.2893 1.04993 17.7013 1.66661C18.1134 2.2833 18.3333 3.00832 18.3333 3.75C18.3322 4.74422 17.9368 5.69741 17.2338 6.40043C16.5307 7.10346 15.5776 7.4989 14.5833 7.5ZM15.8333 9.16667H11.6667C11.5204 9.17338 11.3746 9.18812 11.23 9.21083C10.927 9.91193 10.4795 10.5412 9.91667 11.0575C11.1386 11.4032 12.2145 12.1379 12.9814 13.15C13.7484 14.1622 14.1644 15.3968 14.1667 16.6667H20V13.3333C19.9987 12.2287 19.5593 11.1696 18.7782 10.3885C17.997 9.6074 16.938 9.16799 15.8333 9.16667Z" fill="#AEAEAE"/>
<path d="M10 7.08333L31.3333 7.107L31.3333 7.09517V7.08333H10ZM12.5 16.6667H33.8333V16.6539L33.8333 16.6411L12.5 16.6667ZM8.33333 12.5L8.35889 -8.83332L8.34611 -8.83333H8.33333V12.5ZM4.16667 12.5V-8.83333H4.15389L4.14111 -8.83332L4.16667 12.5ZM0 16.6667L-21.3333 16.6411L-21.3333 16.6539V16.6667H0ZM0 20H-21.3333V41.3333H0V20ZM12.5 20V41.3333H33.8333V20H12.5ZM18.3333 3.75L39.6667 3.77367L39.6667 3.76183V3.75H18.3333ZM11.6667 9.16667V-12.1667H11.1777L10.6892 -12.1443L11.6667 9.16667ZM11.23 9.21083L7.92029 -11.8642L-3.69036 -10.0408L-8.35284 0.747758L11.23 9.21083ZM9.91667 11.0575L-4.50477 -4.66297L-32.6731 21.1777L4.10848 31.5849L9.91667 11.0575ZM14.1667 16.6667L-7.16664 16.704L-7.12936 38H14.1667V16.6667ZM20 16.6667V38H41.3333V16.6667H20ZM20 13.3333H41.3333V13.3206L41.3333 13.3078L20 13.3333ZM6.25 -10.5C9.72765 -10.5 13.1272 -9.46876 16.0188 -7.53667L-7.68555 27.9394C-3.56062 30.6956 1.28899 32.1667 6.25 32.1667V-10.5ZM16.0188 -7.53667C18.9103 -5.60459 21.164 -2.85845 22.4949 0.354483L-16.924 16.6823C-15.0255 21.2657 -11.8105 25.1832 -7.68555 27.9394L16.0188 -7.53667ZM22.4949 0.354483C23.8257 3.56742 24.1739 7.10284 23.4955 10.5137L-18.3514 2.18982C-19.3192 7.05551 -18.8225 12.0989 -16.924 16.6823L22.4949 0.354483ZM23.4955 10.5137C22.817 13.9245 21.1424 17.0576 18.6833 19.5166L-11.4866 -10.6533C-14.9946 -7.14529 -17.3835 -2.67587 -18.3514 2.18982L23.4955 10.5137ZM18.6833 19.5166C16.2242 21.9757 13.0912 23.6504 9.68034 24.3288L1.35648 -17.518C-3.5092 -16.5502 -7.97862 -14.1612 -11.4866 -10.6533L18.6833 19.5166ZM9.68034 24.3288C6.26951 25.0073 2.73408 24.6591 -0.478851 23.3282L15.849 -16.0906C11.2656 -17.9891 6.22217 -18.4859 1.35648 -17.518L9.68034 24.3288ZM-0.478851 23.3282C-3.69178 21.9974 -6.43792 19.7437 -8.37001 16.8521L27.106 -6.85222C24.3498 -10.9772 20.4324 -14.1921 15.849 -16.0906L-0.478851 23.3282ZM-8.37001 16.8521C-10.3021 13.9605 -11.3333 10.561 -11.3333 7.08333H31.3333C31.3333 2.12232 29.8622 -2.72728 27.106 -6.85222L-8.37001 16.8521ZM-11.3333 7.05967C-11.3282 2.40415 -9.47647 -2.05922 -6.18451 -5.35118L23.9854 24.8187C28.6834 20.1207 31.326 13.751 31.3333 7.107L-11.3333 7.05967ZM-6.18451 -5.35118C-2.89255 -8.64314 1.57082 -10.4948 6.22634 -10.5L6.27366 32.1667C12.9176 32.1593 19.2874 29.5167 23.9854 24.8187L-6.18451 -5.35118ZM33.8333 16.6411C33.8252 9.88736 31.1387 3.41254 26.3631 -1.3631L-3.80679 28.8068C-7.0202 25.5934 -8.82788 21.2366 -8.83332 16.6922L33.8333 16.6411ZM26.3631 -1.3631C21.5875 -6.13873 15.1126 -8.82523 8.35889 -8.83332L8.30778 33.8333C3.76336 33.8279 -0.593387 32.0202 -3.80679 28.8068L26.3631 -1.3631ZM8.33333 -8.83333H4.16667V33.8333H8.33333V-8.83333ZM4.14111 -8.83332C-2.61263 -8.82523 -9.08746 -6.13873 -13.8631 -1.3631L16.3068 28.8068C13.0934 32.0202 8.73664 33.8279 4.19222 33.8333L4.14111 -8.83332ZM-13.8631 -1.3631C-18.6387 3.41254 -21.3252 9.88736 -21.3333 16.6411L21.3333 16.6922C21.3279 21.2366 19.5202 25.5934 16.3068 28.8068L-13.8631 -1.3631ZM-21.3333 16.6667V20H21.3333V16.6667H-21.3333ZM0 41.3333H12.5V-1.33333H0V41.3333ZM33.8333 20V16.6667H-8.83333V20H33.8333ZM14.5833 -13.8333C18.061 -13.8333 21.4605 -12.8021 24.3521 -10.87L0.64778 24.606C4.77271 27.3622 9.62232 28.8333 14.5833 28.8333V-13.8333ZM24.3521 -10.87C27.2437 -8.93793 29.4974 -6.19179 30.8282 -2.97885L-8.59065 13.349C-6.69214 17.9324 -3.47715 21.8498 0.64778 24.606L24.3521 -10.87ZM30.8282 -2.97885C32.1591 0.234085 32.5073 3.76951 31.8288 7.18034L-10.018 -1.14351C-10.9859 3.72218 -10.4891 8.7656 -8.59065 13.349L30.8282 -2.97885ZM31.8288 7.18034C31.1503 10.5912 29.4757 13.7242 27.0166 16.1833L-3.15326 -13.9866C-6.66122 -10.4786 -9.05018 -6.00922 -10.018 -1.14351L31.8288 7.18034ZM27.0166 16.1833C24.5576 18.6424 21.4245 20.317 18.0137 20.9955L9.68982 -20.8514C4.82412 -19.8835 0.354701 -17.4946 -3.15326 -13.9866L27.0166 16.1833ZM18.0137 20.9955C14.6028 21.6739 11.0674 21.3257 7.85448 19.9949L24.1823 -19.424C19.5989 -21.3225 14.5555 -21.8192 9.68982 -20.8514L18.0137 20.9955ZM7.85448 19.9949C4.64156 18.664 1.89541 16.4104 -0.0366742 13.5188L35.4394 -10.1856C32.6832 -14.3105 28.7657 -17.5255 24.1823 -19.424L7.85448 19.9949ZM-0.0366742 13.5188C-1.96876 10.6272 -3 7.22765 -3 3.75H39.6667C39.6667 -1.21101 38.1956 -6.06062 35.4394 -10.1856L-0.0366742 13.5188ZM-2.99999 3.72634C-2.99482 -0.929187 -1.14314 -5.39256 2.14882 -8.68451L32.3187 21.4854C37.0167 16.7874 39.6593 10.4176 39.6667 3.77367L-2.99999 3.72634ZM2.14882 -8.68451C5.44078 -11.9765 9.90414 -13.8282 14.5597 -13.8333L14.607 28.8333C21.251 28.826 27.6207 26.1834 32.3187 21.4854L2.14882 -8.68451ZM15.8333 -12.1667H11.6667V30.5H15.8333V-12.1667ZM10.6892 -12.1443C9.76179 -12.1017 8.83741 -12.0082 7.92029 -11.8642L14.5397 30.2859C13.9119 30.3845 13.279 30.4485 12.6441 30.4776L10.6892 -12.1443ZM-8.35284 0.747758C-7.46507 -1.30645 -6.15382 -3.15019 -4.50477 -4.66297L24.3381 26.778C27.1128 24.2326 29.3191 21.1303 30.8128 17.6739L-8.35284 0.747758ZM4.10848 31.5849C0.866746 30.6677 -1.98768 28.7188 -4.02227 26.0335L29.9852 0.266513C26.4167 -4.4431 21.4104 -7.86122 15.7249 -9.46995L4.10848 31.5849ZM-4.02227 26.0335C-6.05686 23.3483 -7.16074 20.073 -7.16664 16.704L35.5 16.6293C35.4896 10.7205 33.5536 4.97612 29.9852 0.266513L-4.02227 26.0335ZM14.1667 38H20V-4.66667H14.1667V38ZM41.3333 16.6667V13.3333H-1.33333V16.6667H41.3333ZM41.3333 13.3078C41.3252 6.55403 38.6387 0.0792084 33.8631 -4.69643L3.69321 25.4735C0.479798 22.2601 -1.32788 17.9033 -1.33332 13.3589L41.3333 13.3078ZM33.8631 -4.69643C29.0875 -9.47206 22.6126 -12.1586 15.8589 -12.1667L15.8078 30.5C11.2634 30.4945 6.90661 28.6869 3.69321 25.4735L33.8631 -4.69643Z" fill="#AEAEAE" mask="url(#path-1-inside-1_138_1529)"/>
</svg>
