<svg width="20" height="18" viewBox="0 0 20 18" fill="none" xmlns="http://www.w3.org/2000/svg">
<path d="M2.18899 17.0798L2.18886 17.079C1.69285 13.9796 1.3416 11.7882 1.09299 10.2371C0.890715 8.97516 0.756377 8.13703 0.667277 7.57859C0.567677 6.95436 0.525324 6.68407 0.507727 6.56209C0.50435 6.53869 0.502259 6.52314 0.500996 6.5134C0.501095 6.50871 0.501147 6.50392 0.501147 6.499C0.501147 6.23033 0.719005 6 1.00215 6H18.9981C19.2732 6 19.4991 6.22231 19.4991 6.498C19.4991 6.50361 19.4992 6.50907 19.4993 6.51442C19.4981 6.52397 19.4961 6.53905 19.4929 6.5615C19.4756 6.68264 19.4336 6.95188 19.3342 7.57559C19.2276 8.24498 19.0558 9.31741 18.7793 11.0425C18.5422 12.5221 18.2282 14.4817 17.8124 17.079L17.8123 17.0798C17.774 17.3216 17.5655 17.5 17.3181 17.5H2.68315C2.43577 17.5 2.2273 17.3216 2.18899 17.0798ZM2.00415 2.983H18.0341C18.2998 2.983 18.5341 3.19779 18.5341 3.491C18.5341 3.49452 18.5345 3.4956 18.5348 3.49662C18.5367 3.50265 18.5379 3.5066 18.4644 4H1.57352C1.50028 3.5114 1.5011 3.50631 1.50265 3.49667C1.50289 3.49517 1.50315 3.49356 1.50315 3.49C1.50315 3.1969 1.74027 2.983 2.00415 2.983ZM17.3688 0.630871C17.4589 0.707013 17.5273 0.816148 17.5319 0.983H2.50643C2.51552 0.710972 2.742 0.5 3.00715 0.5H17.0311C17.1272 0.5 17.2629 0.541433 17.3688 0.630871Z" fill="#AEAEAE" stroke="#AEAEAE"/>
</svg>
