<svg width="20" height="20" viewBox="0 0 20 20" fill="none" xmlns="http://www.w3.org/2000/svg">
<path d="M0 2.47934V9.09091H9.09091V0H2.47934C1.82178 0 1.19115 0.261215 0.726182 0.726182C0.261215 1.19115 0 1.82178 0 2.47934Z" fill="#AEAEAE"/>
<path d="M17.5208 0H10.9092V9.09091H20.0001V2.47934C20.0001 1.82178 19.7389 1.19115 19.2739 0.726182C18.8089 0.261215 18.1783 0 17.5208 0V0Z" fill="#AEAEAE"/>
<path d="M0 17.5207C0 18.1783 0.261215 18.8089 0.726182 19.2738C1.19115 19.7388 1.82178 20 2.47934 20H9.09091V10.9091H0V17.5207Z" fill="#AEAEAE"/>
<path d="M10.9092 20H17.5208C18.1783 20 18.8089 19.7388 19.2739 19.2738C19.7389 18.8089 20.0001 18.1783 20.0001 17.5207V10.9091H10.9092V20Z" fill="#AEAEAE"/>
</svg>
