<svg width="20" height="26" viewBox="0 0 20 26" fill="none" xmlns="http://www.w3.org/2000/svg">
<path d="M12 7.58333V0.498333C12.913 0.873167 13.753 1.45058 14.465 2.22083L17.949 5.99733C18.661 6.76758 19.194 7.67758 19.54 8.66667H13C12.448 8.66667 12 8.18025 12 7.58333ZM13.5 16.25H6.5C6.224 16.25 6 16.4927 6 16.7917V18.9583C6 19.2573 6.224 19.5 6.5 19.5H13.5C13.776 19.5 14 19.2573 14 18.9583V16.7917C14 16.4927 13.776 16.25 13.5 16.25ZM20 11.3588V20.5833C20 23.5701 17.757 26 15 26H5C2.243 26 0 23.5701 0 20.5833V5.41667C0 2.42992 2.243 0 5 0H9.515C9.678 0 9.839 0.0140833 10 0.026V7.58333C10 9.37517 11.346 10.8333 13 10.8333H19.976C19.987 11.0078 20 11.1822 20 11.3588ZM4 6.5C4 7.098 4.448 7.58333 5 7.58333H7C7.552 7.58333 8 7.098 8 6.5C8 5.902 7.552 5.41667 7 5.41667H5C4.448 5.41667 4 5.902 4 6.5ZM4 10.8333C4 11.4313 4.448 11.9167 5 11.9167H7C7.552 11.9167 8 11.4313 8 10.8333C8 10.2353 7.552 9.75 7 9.75H5C4.448 9.75 4 10.2353 4 10.8333ZM16 16.7917C16 15.2988 14.878 14.0833 13.5 14.0833H6.5C5.122 14.0833 4 15.2988 4 16.7917V18.9583C4 20.4512 5.122 21.6667 6.5 21.6667H13.5C14.878 21.6667 16 20.4512 16 18.9583V16.7917Z" fill="#AEAEAE"/>
</svg>
