<svg width="20" height="21" viewBox="0 0 20 21" fill="none" xmlns="http://www.w3.org/2000/svg">
<path d="M6.05183 20.7489C7.00678 20.7489 7.78091 19.9748 7.78091 19.0199C7.78091 18.0649 7.00678 17.2908 6.05183 17.2908C5.09689 17.2908 4.32275 18.0649 4.32275 19.0199C4.32275 19.9748 5.09689 20.7489 6.05183 20.7489Z" fill="#AEAEAE"/>
<path d="M14.6971 20.7489C15.652 20.7489 16.4262 19.9748 16.4262 19.0199C16.4262 18.0649 15.652 17.2908 14.6971 17.2908C13.7422 17.2908 12.968 18.0649 12.968 19.0199C12.968 19.9748 13.7422 20.7489 14.6971 20.7489Z" fill="#AEAEAE"/>
<path d="M15.5617 10.3745C14.6508 10.3755 13.7558 10.1364 12.9667 9.68128C12.1777 9.22613 11.5226 8.57101 11.0675 7.78196C10.6124 6.99291 10.3734 6.09782 10.3745 5.18693C10.3756 4.27604 10.6168 3.38155 11.0739 2.59362H3.66738L3.63107 2.2893C3.55656 1.6587 3.25331 1.07735 2.77879 0.655411C2.30427 0.233473 1.69145 0.000270459 1.05647 0L0.864539 0C0.635249 0 0.41535 0.0910852 0.253218 0.253218C0.0910852 0.41535 0 0.635249 0 0.86454C0 1.09383 0.0910852 1.31373 0.253218 1.47586C0.41535 1.63799 0.635249 1.72908 0.864539 1.72908H1.05647C1.26822 1.72911 1.4726 1.80685 1.63084 1.94756C1.78908 2.08827 1.89018 2.28217 1.91495 2.49247L3.10456 12.6076C3.22806 13.6595 3.73349 14.6295 4.52492 15.3335C5.31635 16.0374 6.33868 16.4263 7.39786 16.4263H16.4262C16.6555 16.4263 16.8754 16.3352 17.0376 16.173C17.1997 16.0109 17.2908 15.791 17.2908 15.5617C17.2908 15.3324 17.1997 15.1125 17.0376 14.9504C16.8754 14.7883 16.6555 14.6972 16.4262 14.6972H7.39786C6.86261 14.6958 6.34088 14.529 5.90424 14.2194C5.46759 13.9098 5.13741 13.4727 4.959 12.9681H15.2652C16.2787 12.9682 17.26 12.6121 18.0376 11.9621C18.8152 11.3122 19.3398 10.4097 19.5196 9.41224L19.7253 8.27191C19.2444 8.92392 18.6171 9.45386 17.8939 9.81906C17.1707 10.1843 16.3719 10.3745 15.5617 10.3745V10.3745Z" fill="#AEAEAE"/>
<path d="M12.9683 6.05176H14.6974V7.78084C14.6974 8.01013 14.7885 8.23003 14.9506 8.39216C15.1127 8.5543 15.3326 8.64538 15.5619 8.64538C15.7912 8.64538 16.0111 8.5543 16.1732 8.39216C16.3354 8.23003 16.4265 8.01013 16.4265 7.78084V6.05176H18.1555C18.3848 6.05176 18.6047 5.96068 18.7669 5.79854C18.929 5.63641 19.0201 5.41651 19.0201 5.18722C19.0201 4.95793 18.929 4.73803 18.7669 4.5759C18.6047 4.41377 18.3848 4.32268 18.1555 4.32268H16.4265V2.5936C16.4265 2.36431 16.3354 2.14442 16.1732 1.98228C16.0111 1.82015 15.7912 1.72906 15.5619 1.72906C15.3326 1.72906 15.1127 1.82015 14.9506 1.98228C14.7885 2.14442 14.6974 2.36431 14.6974 2.5936V4.32268H12.9683C12.739 4.32268 12.5191 4.41377 12.357 4.5759C12.1948 4.73803 12.1038 4.95793 12.1038 5.18722C12.1038 5.41651 12.1948 5.63641 12.357 5.79854C12.5191 5.96068 12.739 6.05176 12.9683 6.05176V6.05176Z" fill="#AEAEAE"/>
</svg>
