<svg width="20" height="19" viewBox="0 0 20 19" fill="none" xmlns="http://www.w3.org/2000/svg">
<path d="M16.6667 0H3.33333C1.49167 0 0 1.43684 0 3.21082V12.8433C0 14.6172 1.49167 16.0541 3.33333 16.0541H5.76667L8.89167 18.5906C9.20833 18.8635 9.60833 19 10.0083 19C10.4083 19 10.7833 18.8716 11.0833 18.6067L14.2917 16.0541H16.6667C18.5083 16.0541 20 14.6172 20 12.8433V3.21082C20 1.43684 18.5083 0 16.6667 0ZM14.3083 7.72201L12.5 9.1428L13.25 11.3342C13.35 11.6312 13.25 11.9603 12.9917 12.1449C12.7333 12.3376 12.3833 12.3456 12.1083 12.177L10.0083 10.8606L7.94167 12.1931C7.81667 12.2733 7.66667 12.3135 7.51667 12.3135C7.35833 12.3135 7.19167 12.2653 7.05833 12.169C6.8 11.9844 6.69167 11.6553 6.79167 11.3583L7.50833 9.1428L5.69167 7.72201C5.45 7.52133 5.35833 7.20025 5.46667 6.91128C5.575 6.62231 5.86667 6.42966 6.18333 6.42966H8.475L9.28333 4.3346C9.39167 4.04563 9.68333 3.85298 10 3.85298C10.3167 3.85298 10.6083 4.04563 10.7167 4.3346L11.525 6.42966H13.8167C14.1333 6.42966 14.425 6.62231 14.5333 6.91128C14.6417 7.20025 14.55 7.52936 14.3083 7.73004V7.72201Z" fill="#AEAEAE"/>
</svg>
