<svg width="20" height="26" viewBox="0 0 20 26" fill="none" xmlns="http://www.w3.org/2000/svg">
<path d="M5.55556 0C4.08267 0.00172016 2.67062 0.572949 1.62913 1.58839C0.587647 2.60383 0.00176429 3.98056 0 5.41661V24.9164C0.00015654 25.1134 0.0554294 25.3067 0.159868 25.4754C0.264307 25.6441 0.413957 25.7818 0.592709 25.8738C0.77146 25.9657 0.972543 26.0083 1.17431 25.9971C1.37608 25.9859 1.57089 25.9213 1.73778 25.8101L4.07778 24.2512L6.41778 25.8101C6.60265 25.9336 6.82149 25.9996 7.04556 25.9996C7.26962 25.9996 7.48846 25.9336 7.67333 25.8101L10.0067 24.2512L12.34 25.8101C12.525 25.9338 12.744 26 12.9683 26C13.1926 26 13.4117 25.9338 13.5967 25.8101L15.93 24.2523L18.2633 25.8091C18.4301 25.9198 18.6247 25.9842 18.8262 25.9953C19.0277 26.0064 19.2285 25.9638 19.4071 25.872C19.5856 25.7803 19.7351 25.6428 19.8396 25.4745C19.944 25.3061 19.9995 25.1132 20 24.9164V5.41661C19.9982 3.98056 19.4124 2.60383 18.3709 1.58839C17.3294 0.572949 15.9173 0.00172016 14.4444 0L5.55556 0ZM12.2222 15.1665H5.55556C5.26087 15.1665 4.97826 15.0524 4.76988 14.8492C4.56151 14.646 4.44444 14.3705 4.44444 14.0832C4.44444 13.7959 4.56151 13.5203 4.76988 13.3172C4.97826 13.114 5.26087 12.9999 5.55556 12.9999H12.2222C12.5169 12.9999 12.7995 13.114 13.0079 13.3172C13.2163 13.5203 13.3333 13.7959 13.3333 14.0832C13.3333 14.3705 13.2163 14.646 13.0079 14.8492C12.7995 15.0524 12.5169 15.1665 12.2222 15.1665ZM15.5556 9.7499C15.5556 10.0372 15.4385 10.3128 15.2301 10.5159C15.0217 10.7191 14.7391 10.8332 14.4444 10.8332H5.55556C5.26087 10.8332 4.97826 10.7191 4.76988 10.5159C4.56151 10.3128 4.44444 10.0372 4.44444 9.7499C4.44444 9.46258 4.56151 9.18704 4.76988 8.98387C4.97826 8.78071 5.26087 8.66658 5.55556 8.66658H14.4444C14.7391 8.66658 15.0217 8.78071 15.2301 8.98387C15.4385 9.18704 15.5556 9.46258 15.5556 9.7499Z" fill="#AEAEAE"/>
</svg>
